<svg id="svg" version="1.1" xmlns="http://www.w3.org/2000/svg" xmlns:xlink="http://www.w3.org/1999/xlink" width="400" height="400" viewBox="0, 0, 400,400"><g id="svgg"><path id="path0" d="M185.000 127.065 C 180.671 129.743,172.367 133.335,166.200 135.196 C 160.720 136.850,159.452 137.550,160.919 138.114 C 161.771 138.441,167.480 137.702,170.600 136.861 C 172.140 136.446,173.670 136.037,174.000 135.953 C 174.515 135.822,174.600 136.710,174.600 142.200 L 174.600 148.600 168.600 148.800 L 162.600 149.000 162.600 150.000 L 162.600 151.000 168.500 151.111 C 172.856 151.192,174.400 151.351,174.400 151.716 C 174.400 154.768,168.261 168.784,163.444 176.727 C 161.317 180.236,161.052 180.834,161.153 181.900 C 161.396 184.472,168.143 176.611,172.233 168.989 C 173.352 166.905,174.387 165.320,174.533 165.467 C 174.680 165.613,174.800 173.589,174.800 183.190 C 174.800 203.424,174.987 204.267,178.708 200.800 L 179.600 199.969 179.600 182.584 C 179.600 168.644,179.702 165.200,180.117 165.200 C 180.792 165.200,183.546 168.093,185.163 170.500 C 187.122 173.417,189.716 173.140,189.672 170.017 C 189.631 167.044,186.765 164.640,181.089 162.816 L 179.578 162.331 179.689 156.865 L 179.800 151.400 187.061 151.291 C 196.299 151.153,196.758 150.704,191.601 146.857 C 188.222 144.336,188.227 144.336,185.800 146.800 C 183.929 148.699,183.724 148.800,181.715 148.800 L 179.600 148.800 179.600 141.461 L 179.600 134.122 181.500 133.492 C 182.545 133.146,184.660 132.396,186.200 131.826 C 187.785 131.239,189.434 130.878,190.000 130.994 C 192.648 131.536,192.390 129.871,189.454 127.465 C 187.379 125.765,187.137 125.743,185.000 127.065 M220.000 128.452 C 216.339 129.980,209.086 132.558,206.600 133.214 C 205.940 133.388,204.410 133.803,203.200 134.135 C 198.881 135.323,194.961 136.311,192.476 136.839 C 189.890 137.389,188.916 138.018,189.411 138.818 C 189.719 139.316,192.757 139.117,199.000 138.190 C 200.980 137.896,203.410 137.538,204.400 137.394 C 209.159 136.702,216.808 135.036,221.799 133.603 C 223.338 133.162,225.621 132.800,226.873 132.800 C 232.010 132.800,232.234 131.867,227.807 128.900 C 224.120 126.429,224.759 126.466,220.000 128.452 M94.800 149.751 C 94.800 170.333,94.792 170.255,96.874 169.176 C 98.585 168.291,99.200 167.496,99.200 166.171 C 99.200 163.512,98.924 163.600,107.243 163.600 L 114.800 163.600 114.800 169.800 L 114.800 176.000 97.824 176.000 C 80.396 176.000,80.101 176.027,80.600 177.599 C 80.844 178.370,81.306 178.394,97.726 178.496 L 114.600 178.600 114.817 189.200 C 114.936 195.030,115.071 199.845,115.117 199.900 C 115.448 200.297,117.481 199.854,118.431 199.178 L 119.586 198.355 119.693 188.478 L 119.800 178.600 137.800 178.400 L 155.800 178.200 155.908 177.200 C 156.004 176.311,151.113 172.043,149.093 171.253 C 148.886 171.172,147.603 172.210,146.241 173.559 L 143.766 176.012 131.783 175.906 L 119.800 175.800 119.690 169.692 L 119.579 163.584 127.890 163.692 L 136.200 163.800 136.330 165.395 C 136.556 168.168,137.965 168.491,140.300 166.304 L 141.200 165.461 141.200 150.930 C 141.200 138.546,141.285 136.400,141.776 136.400 C 143.640 136.400,142.864 134.446,140.202 132.436 C 137.611 130.480,137.492 130.467,136.400 132.000 L 135.546 133.200 117.651 133.200 L 99.757 133.200 97.864 132.000 C 94.555 129.901,94.800 128.479,94.800 149.751 M255.804 134.065 C 255.218 136.459,255.788 198.822,256.400 199.206 C 258.565 200.563,260.400 198.158,260.400 193.963 C 260.400 192.039,260.509 190.181,260.643 189.833 C 260.860 189.266,263.278 189.200,283.843 189.200 L 306.800 189.200 306.800 192.171 C 306.800 196.338,308.174 197.361,310.700 195.075 L 311.600 194.261 311.600 167.676 L 311.600 141.092 312.596 140.169 C 313.875 138.984,313.633 138.423,310.983 136.422 C 308.414 134.482,307.916 134.432,306.800 136.000 L 305.946 137.200 283.528 137.200 L 261.111 137.200 259.256 135.689 C 255.859 132.924,256.060 133.019,255.804 134.065 M136.200 141.200 L 136.200 146.600 117.800 146.600 L 99.400 146.600 99.287 141.656 C 99.133 134.881,96.939 135.574,118.152 135.696 L 136.200 135.800 136.200 141.200 M227.474 140.500 C 225.428 146.285,224.262 149.099,222.256 153.093 C 219.273 159.035,219.467 161.297,222.668 157.900 C 224.521 155.934,231.200 145.651,231.200 144.765 C 231.200 144.571,232.005 144.209,232.988 143.961 C 236.497 143.078,236.354 142.191,232.380 140.190 C 228.733 138.353,228.222 138.385,227.474 140.500 M280.957 140.233 C 281.091 140.581,281.200 145.347,281.200 150.825 L 281.200 160.785 280.300 161.005 C 279.805 161.126,275.170 161.175,270.000 161.113 L 260.600 161.000 260.487 151.200 C 260.425 145.810,260.474 140.995,260.595 140.500 L 260.815 139.600 270.765 139.600 C 279.469 139.600,280.745 139.679,280.957 140.233 M306.707 150.300 L 306.600 161.000 296.400 161.000 L 286.200 161.000 286.093 150.300 L 285.987 139.600 296.400 139.600 L 306.813 139.600 306.707 150.300 M206.986 141.223 C 206.842 141.456,207.549 142.875,208.557 144.377 C 210.430 147.169,211.645 149.666,212.168 151.800 C 213.050 155.398,216.800 155.169,216.800 151.517 C 216.800 147.381,208.537 138.713,206.986 141.223 M195.300 143.483 C 194.478 143.785,194.722 144.589,196.196 146.444 C 196.964 147.410,197.594 148.337,197.596 148.504 C 197.598 148.672,197.939 149.572,198.353 150.504 C 198.767 151.437,199.337 152.830,199.620 153.600 C 201.017 157.402,204.000 156.970,204.000 152.966 C 204.000 149.117,197.941 142.512,195.300 143.483 M136.208 150.100 C 136.331 150.595,136.379 153.250,136.316 156.000 L 136.200 161.000 118.600 161.111 C 108.920 161.172,100.595 161.124,100.100 161.003 C 99.044 160.747,98.671 150.689,99.680 149.680 C 100.039 149.321,104.674 149.200,118.072 149.200 L 135.985 149.200 136.208 150.100 M206.582 159.704 C 206.477 159.977,206.439 169.200,206.496 180.200 L 206.600 200.200 207.954 200.135 C 209.830 200.045,210.914 198.826,211.181 196.508 L 211.400 194.600 220.000 194.600 L 228.600 194.600 228.712 195.600 C 229.058 198.692,230.096 199.241,232.438 197.573 L 233.600 196.746 233.600 181.164 L 233.600 165.583 234.615 165.120 C 235.232 164.839,235.546 164.437,235.415 164.096 C 235.297 163.787,235.200 163.405,235.200 163.246 C 235.200 162.897,230.583 159.600,230.095 159.600 C 229.905 159.600,229.351 160.140,228.863 160.800 L 227.976 162.000 219.688 161.999 L 211.400 161.998 209.086 160.603 C 207.486 159.638,206.713 159.360,206.582 159.704 M192.800 180.148 L 192.800 200.000 193.969 200.000 C 194.644 200.000,195.660 199.562,196.369 198.964 L 197.600 197.929 197.600 180.956 L 197.600 163.983 198.552 163.549 C 200.683 162.578,198.917 160.989,195.245 160.573 L 192.800 160.297 192.800 180.148 M280.957 164.233 C 281.574 165.839,281.216 186.308,280.567 186.557 C 278.969 187.170,260.892 186.817,260.643 186.167 C 260.509 185.819,260.400 180.884,260.400 175.200 C 260.400 169.516,260.509 164.581,260.643 164.233 C 261.010 163.275,280.590 163.275,280.957 164.233 M306.706 175.100 L 306.600 186.600 296.400 186.600 L 286.200 186.600 286.094 175.100 L 285.988 163.600 296.400 163.600 L 306.812 163.600 306.706 175.100 M228.710 170.700 L 228.821 176.800 220.010 176.800 L 211.200 176.800 211.200 170.867 C 211.200 167.603,211.323 164.810,211.474 164.659 C 211.625 164.508,215.540 164.433,220.174 164.492 L 228.600 164.600 228.710 170.700 M228.710 185.700 L 228.820 192.000 220.010 192.000 L 211.200 192.000 211.200 185.867 C 211.200 182.493,211.323 179.610,211.474 179.459 C 211.625 179.308,215.540 179.233,220.174 179.292 L 228.600 179.400 228.710 185.700 M211.320 211.463 C 211.167 211.864,211.365 212.328,211.835 212.665 C 215.364 215.202,214.862 216.240,205.420 225.942 C 196.195 235.420,184.431 244.216,169.271 252.972 C 163.280 256.432,162.069 257.591,163.764 258.242 C 165.981 259.092,185.941 247.999,196.664 239.957 C 197.580 239.270,198.525 238.830,198.764 238.978 C 199.529 239.451,199.346 264.130,198.540 269.217 C 197.638 274.909,198.953 278.400,201.999 278.400 C 203.629 278.400,203.599 278.770,203.606 258.267 C 203.609 247.890,203.744 239.220,203.906 238.999 C 204.068 238.779,204.695 238.344,205.300 238.032 C 206.802 237.258,206.690 236.229,205.017 235.435 C 203.345 234.642,203.466 234.225,205.901 232.400 C 206.928 231.630,210.107 228.692,212.965 225.871 C 218.628 220.282,218.999 220.000,220.694 220.000 C 225.995 220.000,219.413 211.840,213.485 211.062 C 211.931 210.859,211.523 210.934,211.320 211.463 M106.283 211.728 C 106.050 212.336,106.603 212.813,108.870 213.961 C 110.447 214.760,110.647 216.027,109.603 218.600 C 109.424 219.040,108.865 220.480,108.360 221.800 C 106.801 225.874,100.804 236.256,99.234 237.600 C 99.105 237.710,98.024 238.970,96.832 240.400 C 95.639 241.830,92.778 244.827,90.473 247.059 C 86.505 250.904,85.602 252.400,87.250 252.400 C 88.249 252.400,95.288 246.746,99.872 242.263 L 103.544 238.671 106.147 239.314 C 111.206 240.562,117.569 243.733,120.305 246.369 L 121.210 247.241 119.941 249.120 C 114.828 256.689,105.429 265.416,95.400 271.905 C 89.785 275.538,89.200 275.980,89.200 276.596 C 89.200 280.910,112.444 265.293,120.897 255.301 C 122.339 253.595,123.989 251.762,124.563 251.228 L 125.605 250.255 126.703 251.302 C 131.087 255.485,134.560 251.254,130.399 246.799 C 128.888 245.181,128.884 245.221,130.800 242.400 C 131.680 241.104,132.400 239.931,132.400 239.794 C 132.400 239.657,132.940 238.759,133.600 237.800 C 134.260 236.840,135.898 233.880,137.238 231.221 C 139.300 227.133,139.951 226.197,141.455 225.162 C 144.011 223.404,143.141 221.608,138.537 219.134 L 136.874 218.240 135.268 219.691 C 133.526 221.265,133.102 221.366,126.400 221.819 C 114.859 222.599,114.302 222.611,114.098 222.078 C 113.776 221.239,115.643 218.023,116.764 217.486 C 118.863 216.480,117.771 214.532,114.004 212.563 C 111.352 211.178,106.688 210.673,106.283 211.728 M275.720 214.665 C 275.544 215.122,275.770 215.547,276.413 215.971 C 281.379 219.246,281.381 220.000,276.459 233.800 C 272.359 245.293,268.504 254.625,266.079 258.926 C 263.992 262.626,254.390 262.797,252.309 259.170 C 250.548 256.102,249.715 259.912,251.370 263.466 C 253.569 268.190,257.304 270.694,259.089 268.642 C 259.713 267.924,260.860 267.477,263.661 266.862 C 282.062 262.822,288.676 261.286,296.574 259.223 C 300.739 258.135,304.297 257.336,304.480 257.449 C 305.317 257.967,306.897 261.630,308.049 265.727 C 309.497 270.876,313.600 270.432,313.600 265.125 C 313.600 258.267,305.557 248.158,293.035 239.277 C 288.279 235.904,287.813 237.679,292.320 242.000 C 297.228 246.706,302.400 252.979,302.400 254.227 C 302.400 255.175,269.743 261.077,268.941 260.274 C 268.812 260.145,269.604 258.546,270.700 256.720 C 273.963 251.287,279.462 240.132,281.999 233.800 C 284.644 227.196,285.896 224.874,287.164 224.219 C 289.204 223.164,288.570 221.332,285.053 218.118 C 281.631 214.991,276.345 213.035,275.720 214.665 M133.848 224.580 C 134.268 225.677,127.897 237.883,125.109 241.321 L 124.200 242.442 121.600 241.263 C 117.971 239.618,113.595 238.212,109.600 237.407 C 107.730 237.030,105.968 236.652,105.684 236.567 C 105.340 236.464,105.860 235.387,107.231 233.354 C 108.366 231.673,109.972 229.129,110.799 227.702 L 112.304 225.108 118.252 224.933 C 121.523 224.837,125.460 224.611,127.000 224.432 C 131.656 223.889,133.599 223.931,133.848 224.580 " stroke="none" fill="#f8f4f5" fill-rule="evenodd"></path><path id="path1" d="M177.876 21.045 C 166.394 32.620,151.711 47.335,145.246 53.745 C 130.044 68.819,68.819 130.044,53.745 145.246 C 47.335 151.711,32.620 166.394,21.045 177.876 C 2.391 196.381,0.000 198.891,0.000 199.975 C 0.000 201.061,2.778 203.966,24.645 225.755 C 38.199 239.260,49.625 250.646,50.035 251.055 C 50.446 251.465,72.832 273.850,99.782 300.800 C 126.733 327.750,149.325 350.340,149.988 351.000 C 150.650 351.660,161.903 362.955,174.994 376.100 C 195.920 397.113,198.940 400.000,199.997 400.000 C 201.053 400.000,204.162 397.027,225.759 375.360 C 239.267 361.808,250.500 350.540,250.720 350.320 C 251.243 349.797,349.659 251.381,350.260 250.780 C 350.513 250.527,361.808 239.267,375.360 225.759 C 396.057 205.128,399.999 201.023,399.996 200.099 C 399.992 199.172,387.297 186.312,319.096 118.144 C 274.603 73.673,229.878 28.898,219.706 18.644 C 203.300 2.106,201.072 0.000,199.982 0.000 C 198.889 0.000,196.428 2.343,177.876 21.045 M189.454 127.465 C 192.390 129.871,192.648 131.536,190.000 130.994 C 189.434 130.878,187.785 131.239,186.200 131.826 C 184.660 132.396,182.545 133.146,181.500 133.492 L 179.600 134.122 179.600 141.461 L 179.600 148.800 181.715 148.800 C 183.724 148.800,183.929 148.699,185.800 146.800 C 188.227 144.336,188.222 144.336,191.601 146.857 C 196.758 150.704,196.299 151.153,187.061 151.291 L 179.800 151.400 179.689 156.865 L 179.578 162.331 181.089 162.816 C 186.765 164.640,189.631 167.044,189.672 170.017 C 189.716 173.140,187.122 173.417,185.163 170.500 C 183.546 168.093,180.792 165.200,180.117 165.200 C 179.702 165.200,179.600 168.644,179.600 182.584 L 179.600 199.969 178.708 200.800 C 174.987 204.267,174.800 203.424,174.800 183.190 C 174.800 173.589,174.680 165.613,174.533 165.467 C 174.387 165.320,173.352 166.905,172.233 168.989 C 168.143 176.611,161.396 184.472,161.153 181.900 C 161.052 180.834,161.317 180.236,163.444 176.727 C 168.261 168.784,174.400 154.768,174.400 151.716 C 174.400 151.351,172.856 151.192,168.500 151.111 L 162.600 151.000 162.600 150.000 L 162.600 149.000 168.600 148.800 L 174.600 148.600 174.600 142.200 C 174.600 136.710,174.515 135.822,174.000 135.953 C 173.670 136.037,172.140 136.446,170.600 136.861 C 167.480 137.702,161.771 138.441,160.919 138.114 C 159.452 137.550,160.720 136.850,166.200 135.196 C 172.367 133.335,180.671 129.743,185.000 127.065 C 187.137 125.743,187.379 125.765,189.454 127.465 M227.807 128.900 C 232.234 131.867,232.010 132.800,226.873 132.800 C 225.621 132.800,223.338 133.162,221.799 133.603 C 216.808 135.036,209.159 136.702,204.400 137.394 C 203.410 137.538,200.980 137.896,199.000 138.190 C 192.757 139.117,189.719 139.316,189.411 138.818 C 188.916 138.018,189.890 137.389,192.476 136.839 C 194.961 136.311,198.881 135.323,203.200 134.135 C 204.410 133.803,205.940 133.388,206.600 133.214 C 209.086 132.558,216.339 129.980,220.000 128.452 C 224.759 126.466,224.120 126.429,227.807 128.900 M97.864 132.000 L 99.757 133.200 117.651 133.200 L 135.546 133.200 136.400 132.000 C 137.492 130.467,137.611 130.480,140.202 132.436 C 142.864 134.446,143.640 136.400,141.776 136.400 C 141.285 136.400,141.200 138.546,141.200 150.930 L 141.200 165.461 140.300 166.304 C 137.965 168.491,136.556 168.168,136.330 165.395 L 136.200 163.800 127.890 163.692 L 119.579 163.584 119.690 169.692 L 119.800 175.800 131.783 175.906 L 143.766 176.012 146.241 173.559 C 147.603 172.210,148.886 171.172,149.093 171.253 C 151.113 172.043,156.004 176.311,155.908 177.200 L 155.800 178.200 137.800 178.400 L 119.800 178.600 119.693 188.478 L 119.586 198.355 118.431 199.178 C 117.481 199.854,115.448 200.297,115.117 199.900 C 115.071 199.845,114.936 195.030,114.817 189.200 L 114.600 178.600 97.726 178.496 C 81.306 178.394,80.844 178.370,80.600 177.599 C 80.101 176.027,80.396 176.000,97.824 176.000 L 114.800 176.000 114.800 169.800 L 114.800 163.600 107.243 163.600 C 98.924 163.600,99.200 163.512,99.200 166.171 C 99.200 167.496,98.585 168.291,96.874 169.176 C 94.792 170.255,94.800 170.333,94.800 149.751 C 94.800 128.479,94.555 129.901,97.864 132.000 M259.256 135.689 L 261.111 137.200 283.528 137.200 L 305.946 137.200 306.800 136.000 C 307.916 134.432,308.414 134.482,310.983 136.422 C 313.633 138.423,313.875 138.984,312.596 140.169 L 311.600 141.092 311.600 167.676 L 311.600 194.261 310.700 195.075 C 308.174 197.361,306.800 196.338,306.800 192.171 L 306.800 189.200 283.843 189.200 C 263.278 189.200,260.860 189.266,260.643 189.833 C 260.509 190.181,260.400 192.039,260.400 193.963 C 260.400 198.158,258.565 200.563,256.400 199.206 C 255.788 198.822,255.218 136.459,255.804 134.065 C 256.060 133.019,255.859 132.924,259.256 135.689 M99.640 136.152 C 99.327 136.529,99.212 138.333,99.287 141.656 L 99.400 146.600 117.800 146.600 L 136.200 146.600 136.200 141.200 L 136.200 135.800 118.152 135.696 C 103.074 135.609,100.028 135.684,99.640 136.152 M232.380 140.190 C 236.354 142.191,236.497 143.078,232.988 143.961 C 232.005 144.209,231.200 144.571,231.200 144.765 C 231.200 145.651,224.521 155.934,222.668 157.900 C 219.467 161.297,219.273 159.035,222.256 153.093 C 224.262 149.099,225.428 146.285,227.474 140.500 C 228.222 138.385,228.733 138.353,232.380 140.190 M260.595 140.500 C 260.474 140.995,260.425 145.810,260.487 151.200 L 260.600 161.000 270.000 161.113 C 275.170 161.175,279.805 161.126,280.300 161.005 L 281.200 160.785 281.200 150.825 C 281.200 145.347,281.091 140.581,280.957 140.233 C 280.745 139.679,279.469 139.600,270.765 139.600 L 260.815 139.600 260.595 140.500 M286.093 150.300 L 286.200 161.000 296.400 161.000 L 306.600 161.000 306.707 150.300 L 306.813 139.600 296.400 139.600 L 285.987 139.600 286.093 150.300 M210.026 142.016 C 214.012 144.575,216.800 148.484,216.800 151.517 C 216.800 155.169,213.050 155.398,212.168 151.800 C 211.645 149.666,210.430 147.169,208.557 144.377 C 206.060 140.656,206.587 139.810,210.026 142.016 M201.203 146.961 C 204.784 150.602,205.241 156.000,201.969 156.000 C 200.754 156.000,200.350 155.587,199.620 153.600 C 199.337 152.830,198.767 151.437,198.353 150.504 C 197.939 149.572,197.598 148.672,197.596 148.504 C 197.594 148.337,196.964 147.410,196.196 146.444 C 192.913 142.314,197.052 142.742,201.203 146.961 M99.680 149.680 C 98.671 150.689,99.044 160.747,100.100 161.003 C 100.595 161.124,108.920 161.172,118.600 161.111 L 136.200 161.000 136.316 156.000 C 136.379 153.250,136.331 150.595,136.208 150.100 L 135.985 149.200 118.072 149.200 C 104.674 149.200,100.039 149.321,99.680 149.680 M219.688 161.999 L 227.976 162.000 228.863 160.800 C 229.351 160.140,229.905 159.600,230.095 159.600 C 230.583 159.600,235.200 162.897,235.200 163.246 C 235.200 163.405,235.297 163.787,235.415 164.096 C 235.546 164.437,235.232 164.839,234.615 165.120 L 233.600 165.583 233.600 181.164 L 233.600 196.746 232.438 197.573 C 230.096 199.241,229.058 198.692,228.712 195.600 L 228.600 194.600 220.000 194.600 L 211.400 194.600 211.181 196.508 C 210.914 198.826,209.830 200.045,207.954 200.135 L 206.600 200.200 206.496 180.200 C 206.375 156.933,206.126 158.818,209.086 160.603 L 211.400 161.998 219.688 161.999 M198.420 161.305 C 199.571 162.024,199.631 163.057,198.552 163.549 L 197.600 163.983 197.600 180.956 L 197.600 197.929 196.369 198.964 C 195.660 199.562,194.644 200.000,193.969 200.000 L 192.800 200.000 192.800 180.148 L 192.800 160.297 195.245 160.573 C 196.590 160.726,198.019 161.055,198.420 161.305 M260.643 164.233 C 260.509 164.581,260.400 169.516,260.400 175.200 C 260.400 180.884,260.509 185.819,260.643 186.167 C 260.892 186.817,278.969 187.170,280.567 186.557 C 281.216 186.308,281.574 165.839,280.957 164.233 C 280.590 163.275,261.010 163.275,260.643 164.233 M286.094 175.100 L 286.200 186.600 296.400 186.600 L 306.600 186.600 306.706 175.100 L 306.812 163.600 296.400 163.600 L 285.988 163.600 286.094 175.100 M211.474 164.659 C 211.323 164.810,211.200 167.603,211.200 170.867 L 211.200 176.800 220.010 176.800 L 228.821 176.800 228.710 170.700 L 228.600 164.600 220.174 164.492 C 215.540 164.433,211.625 164.508,211.474 164.659 M211.474 179.459 C 211.323 179.610,211.200 182.493,211.200 185.867 L 211.200 192.000 220.010 192.000 L 228.820 192.000 228.710 185.700 L 228.600 179.400 220.174 179.292 C 215.540 179.233,211.625 179.308,211.474 179.459 M216.800 212.015 C 218.597 212.914,222.800 217.311,222.800 218.290 C 222.800 219.364,222.016 220.000,220.694 220.000 C 218.999 220.000,218.628 220.282,212.965 225.871 C 210.107 228.692,206.928 231.630,205.901 232.400 C 203.466 234.225,203.345 234.642,205.017 235.435 C 206.690 236.229,206.802 237.258,205.300 238.032 C 204.695 238.344,204.068 238.779,203.906 238.999 C 203.744 239.220,203.609 247.890,203.606 258.267 C 203.599 278.770,203.629 278.400,201.999 278.400 C 198.953 278.400,197.638 274.909,198.540 269.217 C 199.346 264.130,199.529 239.451,198.764 238.978 C 198.525 238.830,197.580 239.270,196.664 239.957 C 185.941 247.999,165.981 259.092,163.764 258.242 C 162.069 257.591,163.280 256.432,169.271 252.972 C 184.431 244.216,196.195 235.420,205.420 225.942 C 214.862 216.240,215.364 215.202,211.835 212.665 C 209.429 210.936,213.564 210.394,216.800 212.015 M114.004 212.563 C 117.771 214.532,118.863 216.480,116.764 217.486 C 115.643 218.023,113.776 221.239,114.098 222.078 C 114.302 222.611,114.859 222.599,126.400 221.819 C 133.102 221.366,133.526 221.265,135.268 219.691 L 136.874 218.240 138.537 219.134 C 143.141 221.608,144.011 223.404,141.455 225.162 C 139.951 226.197,139.300 227.133,137.238 231.221 C 135.898 233.880,134.260 236.840,133.600 237.800 C 132.940 238.759,132.400 239.657,132.400 239.794 C 132.400 239.931,131.680 241.104,130.800 242.400 C 128.884 245.221,128.888 245.181,130.399 246.799 C 134.560 251.254,131.087 255.485,126.703 251.302 L 125.605 250.255 124.563 251.228 C 123.989 251.762,122.339 253.595,120.897 255.301 C 112.444 265.293,89.200 280.910,89.200 276.596 C 89.200 275.980,89.785 275.538,95.400 271.905 C 105.429 265.416,114.828 256.689,119.941 249.120 L 121.210 247.241 120.305 246.369 C 117.569 243.733,111.206 240.562,106.147 239.314 L 103.544 238.671 99.872 242.263 C 95.288 246.746,88.249 252.400,87.250 252.400 C 85.602 252.400,86.505 250.904,90.473 247.059 C 92.778 244.827,95.639 241.830,96.832 240.400 C 98.024 238.970,99.105 237.710,99.234 237.600 C 100.804 236.256,106.801 225.874,108.360 221.800 C 108.865 220.480,109.424 219.040,109.603 218.600 C 110.647 216.027,110.447 214.760,108.870 213.961 C 106.603 212.813,106.050 212.336,106.283 211.728 C 106.688 210.673,111.352 211.178,114.004 212.563 M281.133 215.316 C 286.232 217.678,289.756 222.878,287.164 224.219 C 285.896 224.874,284.644 227.196,281.999 233.800 C 279.462 240.132,273.963 251.287,270.700 256.720 C 269.604 258.546,268.812 260.145,268.941 260.274 C 269.743 261.077,302.400 255.175,302.400 254.227 C 302.400 252.979,297.228 246.706,292.320 242.000 C 287.813 237.679,288.279 235.904,293.035 239.277 C 305.557 248.158,313.600 258.267,313.600 265.125 C 313.600 270.432,309.497 270.876,308.049 265.727 C 306.897 261.630,305.317 257.967,304.480 257.449 C 304.297 257.336,300.739 258.135,296.574 259.223 C 288.676 261.286,282.062 262.822,263.661 266.862 C 260.860 267.477,259.713 267.924,259.089 268.642 C 257.304 270.694,253.569 268.190,251.370 263.466 C 249.715 259.912,250.548 256.102,252.309 259.170 C 253.664 261.531,255.886 261.983,262.554 261.257 C 264.892 261.002,264.917 260.985,266.079 258.926 C 268.504 254.625,272.359 245.293,276.459 233.800 C 281.381 220.000,281.379 219.246,276.413 215.971 C 273.584 214.105,277.379 213.578,281.133 215.316 M127.000 224.432 C 125.460 224.611,121.523 224.837,118.252 224.933 L 112.304 225.108 110.799 227.702 C 109.972 229.129,108.366 231.673,107.231 233.354 C 105.860 235.387,105.340 236.464,105.684 236.567 C 105.968 236.652,107.730 237.030,109.600 237.407 C 113.595 238.212,117.971 239.618,121.600 241.263 L 124.200 242.442 125.109 241.321 C 127.897 237.883,134.268 225.677,133.848 224.580 C 133.599 223.931,131.656 223.889,127.000 224.432 " stroke="none" fill="#8c1c2c" fill-rule="evenodd"></path></g></svg>