<?xml version="1.0"?>
<svg xmlns="http://www.w3.org/2000/svg" xmlns:xlink="http://www.w3.org/1999/xlink" version="1.1" id="Capa_1" x="0px" y="0px" viewBox="0 0 480 480" style="enable-background:new 0 0 480 480;" xml:space="preserve" width="20px" height="20px" class=""><g transform="matrix(0.8 0 0 1 0 0)"><g>
	<g>
		<path d="M240,4.72l-107.36,107.2l20.96,20.96l48.96-48.96c9.489-9.396,16.807-20.755,21.44-33.28v312.64h32V52.08    c4.607,12.01,11.695,22.914,20.8,32l48.96,48.96l20.96-20.96L240,4.72z" data-original="#000000" class="active-path" fill="#000000"/>
	</g>
</g><g>
	<g>
		<polygon points="352,155.28 352,187.28 448,187.28 448,443.28 32,443.28 32,187.28 128,187.28 128,155.28 0,155.28 0,475.28     480,475.28 480,155.28   " data-original="#000000" class="active-path" fill="#000000"/>
	</g>
</g></g> </svg>
