<svg width="135" height="19" viewBox="0 0 135 19" fill="none" xmlns="http://www.w3.org/2000/svg">
<path d="M4.74806 14.904L0.452063 1.656L1.58006 1.728L2.68406 1.656C2.76406 1.896 2.88406 2.312 3.04406 2.904C3.15606 3.336 3.27606 3.768 3.40406 4.2L4.82006 9.072L6.83606 15.408H7.05206C7.35606 14.512 7.94006 12.824 8.80406 10.344C9.76406 7.544 10.3561 5.816 10.5801 5.16C11.1721 3.368 11.5481 2.2 11.7081 1.656L12.4041 1.728L13.0761 1.656L17.6361 15.408H17.8521C18.1721 14.592 18.4921 13.68 18.8121 12.672L21.6201 3.624L22.1961 1.656L23.0361 1.728L23.8761 1.656C23.4281 2.696 23.0281 3.72 22.6761 4.728L18.0921 18.072L17.3001 18L16.5081 18.072L12.1641 4.608H11.9721L7.31606 18.072L6.52406 18L5.70806 18.072L4.74806 14.904ZM34.0761 10.488V16.056C34.0761 16.296 34.0761 16.528 34.0761 16.752C34.1241 17.088 34.3401 17.256 34.7241 17.256C34.9321 17.256 35.1641 17.224 35.4201 17.16V17.688C35.3401 17.72 35.2201 17.768 35.0601 17.832C34.9161 17.88 34.7481 17.92 34.5561 17.952C34.3801 17.984 34.1641 18 33.9081 18C33.4441 18 33.0601 17.888 32.7561 17.664C32.4681 17.44 32.2921 17.064 32.2281 16.536L32.0121 16.752C31.0041 17.76 29.8201 18.264 28.4601 18.264C27.5801 18.264 26.8281 17.992 26.2041 17.448C25.5801 16.904 25.2681 16.2 25.2681 15.336C25.2681 14.12 25.7241 13.248 26.6361 12.72C27.1961 12.4 28.2201 12.12 29.7081 11.88C30.7481 11.704 31.4041 11.544 31.6761 11.4C32.0601 11.192 32.2521 10.816 32.2521 10.272C32.2521 9.376 32.0041 8.688 31.5081 8.208C31.0281 7.712 30.3401 7.464 29.4441 7.464C28.6761 7.464 28.0041 7.672 27.4281 8.088C26.9801 8.408 26.7001 8.752 26.5881 9.12H26.3241V7.776C26.9481 7.344 27.5721 7.016 28.1961 6.792C28.8361 6.568 29.5001 6.456 30.1881 6.456C32.7801 6.456 34.0761 7.8 34.0761 10.488ZM32.1561 15.6V12.096L31.3161 12.264C29.9241 12.536 29.0441 12.752 28.6761 12.912C27.7161 13.344 27.2361 14.04 27.2361 15C27.2361 15.736 27.4441 16.296 27.8601 16.68C28.2761 17.064 28.8521 17.256 29.5881 17.256C29.8921 17.256 30.2281 17.168 30.5961 16.992C30.9641 16.8 31.2681 16.584 31.5081 16.344C31.6361 16.232 31.7721 16.104 31.9161 15.96C32.0761 15.8 32.1561 15.68 32.1561 15.6ZM37.6761 15.744H37.8681C38.1721 16.256 38.5721 16.68 39.0681 17.016C39.5641 17.352 40.0841 17.52 40.6281 17.52C41.2361 17.52 41.7801 17.312 42.2601 16.896C42.7401 16.48 42.9801 15.96 42.9801 15.336C42.9801 14.344 42.0361 13.576 40.1481 13.032C38.2601 12.488 37.3161 11.48 37.3161 10.008C37.3161 8.888 37.6841 8.016 38.4201 7.392C39.1561 6.768 40.0921 6.456 41.2281 6.456C41.7881 6.456 42.3161 6.528 42.8121 6.672C43.3241 6.8 43.7001 6.936 43.9401 7.08C43.7001 7.624 43.5081 8.192 43.3641 8.784H43.1481C42.9881 8.368 42.7161 8 42.3321 7.68C41.9481 7.36 41.5401 7.2 41.1081 7.2C40.4841 7.2 39.9641 7.376 39.5481 7.728C39.1321 8.08 38.9241 8.568 38.9241 9.192C38.9241 10.152 39.8681 10.936 41.7561 11.544C43.6441 12.152 44.5881 13.128 44.5881 14.472C44.5881 15.672 44.1161 16.624 43.1721 17.328C42.3401 17.952 41.3401 18.264 40.1721 18.264C39.6761 18.264 39.1481 18.192 38.5881 18.048C38.0441 17.92 37.5721 17.736 37.1721 17.496C37.2681 17.208 37.3641 16.92 37.4601 16.632C37.5561 16.328 37.6281 16.032 37.6761 15.744ZM56.1242 15.6L56.1002 16.848C55.4762 17.296 54.8202 17.648 54.1322 17.904C53.4442 18.144 52.7242 18.264 51.9722 18.264C50.2762 18.264 48.9082 17.736 47.8682 16.68C46.8282 15.624 46.3082 14.184 46.3082 12.36C46.3082 10.616 46.7722 9.216 47.7002 8.16C48.6922 7.024 50.0602 6.456 51.8042 6.456C53.2282 6.456 54.3722 6.928 55.2362 7.872C56.1962 8.912 56.6762 10.4 56.6762 12.336L51.8042 12.264H48.4202C48.4202 13.704 48.7482 14.872 49.4042 15.768C50.1402 16.76 51.1962 17.256 52.5722 17.256C53.3082 17.256 54.0202 17.064 54.7082 16.68C55.1722 16.424 55.6442 16.064 56.1242 15.6ZM48.4202 11.376H54.8042C54.8042 10.144 54.6042 9.184 54.2042 8.496C53.7082 7.632 52.9082 7.2 51.8042 7.2C50.7322 7.2 49.8842 7.64 49.2602 8.52C48.7002 9.304 48.4202 10.256 48.4202 11.376ZM69.1802 0.0479994V18.072L68.2202 18L67.2602 18.072V15.768C66.2842 17.432 64.9082 18.264 63.1322 18.264C61.7082 18.264 60.5722 17.792 59.7242 16.848C58.7962 15.824 58.3322 14.36 58.3322 12.456C58.3322 10.76 58.8042 9.336 59.7482 8.184C60.6922 7.032 61.9402 6.456 63.4922 6.456C64.2922 6.456 65.0122 6.664 65.6522 7.08C66.2922 7.48 66.8282 8.048 67.2602 8.784V0.0479994L68.2202 0.119998L69.1802 0.0479994ZM67.2602 12.024C67.2602 10.824 67.0282 9.808 66.5642 8.976C65.9882 7.952 65.1402 7.44 64.0202 7.44C62.6442 7.44 61.6682 8.024 61.0922 9.192C60.6602 10.056 60.4442 11.256 60.4442 12.792C60.4442 14.008 60.6762 15.032 61.1402 15.864C61.7162 16.888 62.5802 17.4 63.7322 17.4C64.9802 17.4 65.9162 16.784 66.5402 15.552C67.0202 14.592 67.2602 13.416 67.2602 12.024ZM80.7401 10.488V16.056C80.7401 16.296 80.7401 16.528 80.7401 16.752C80.7881 17.088 81.0041 17.256 81.3881 17.256C81.5961 17.256 81.8281 17.224 82.0841 17.16V17.688C82.0041 17.72 81.8841 17.768 81.7241 17.832C81.5801 17.88 81.4121 17.92 81.2201 17.952C81.0441 17.984 80.8281 18 80.5721 18C80.1081 18 79.7241 17.888 79.4201 17.664C79.1321 17.44 78.9561 17.064 78.8921 16.536L78.6761 16.752C77.6681 17.76 76.4841 18.264 75.1241 18.264C74.2441 18.264 73.4921 17.992 72.8681 17.448C72.2441 16.904 71.9321 16.2 71.9321 15.336C71.9321 14.12 72.3881 13.248 73.3001 12.72C73.8601 12.4 74.8841 12.12 76.3721 11.88C77.4121 11.704 78.0681 11.544 78.3401 11.4C78.7241 11.192 78.9161 10.816 78.9161 10.272C78.9161 9.376 78.6681 8.688 78.1721 8.208C77.6921 7.712 77.0041 7.464 76.1081 7.464C75.3401 7.464 74.6681 7.672 74.0921 8.088C73.6441 8.408 73.3641 8.752 73.2521 9.12H72.9881V7.776C73.6121 7.344 74.2361 7.016 74.8601 6.792C75.5001 6.568 76.1641 6.456 76.8521 6.456C79.4441 6.456 80.7401 7.8 80.7401 10.488ZM78.8201 15.6V12.096L77.9801 12.264C76.5881 12.536 75.7081 12.752 75.3401 12.912C74.3801 13.344 73.9001 14.04 73.9001 15C73.9001 15.736 74.1081 16.296 74.5241 16.68C74.9401 17.064 75.5161 17.256 76.2521 17.256C76.5561 17.256 76.8921 17.168 77.2601 16.992C77.6281 16.8 77.9321 16.584 78.1721 16.344C78.3001 16.232 78.4361 16.104 78.5801 15.96C78.7401 15.8 78.8201 15.68 78.8201 15.6ZM90.6761 2.808V18.12L89.6201 18.048L88.5641 18.12V2.808C87.3161 2.808 86.4281 2.824 85.9001 2.856C85.3721 2.888 84.5081 2.968 83.3081 3.096L83.3801 2.376L83.3081 1.656H95.6921L95.6201 2.376L95.6921 3.096C95.1001 3.032 94.3481 2.968 93.4361 2.904C92.5401 2.84 91.6201 2.808 90.6761 2.808ZM100.46 6.6V18.072L99.5001 18L98.5401 18.072V6.6L99.5001 6.672L100.46 6.6ZM100.724 2.496C100.724 2.832 100.604 3.12 100.364 3.36C100.124 3.6 99.8361 3.72 99.5001 3.72C99.1641 3.72 98.8761 3.6 98.6361 3.36C98.3961 3.12 98.2761 2.832 98.2761 2.496C98.2761 2.16 98.3961 1.872 98.6361 1.632C98.8761 1.392 99.1641 1.272 99.5001 1.272C99.8201 1.272 100.1 1.392 100.34 1.632C100.596 1.856 100.724 2.144 100.724 2.496ZM104.548 18.072V6.6L105.508 6.672L106.468 6.6V8.664C106.868 7.96 107.356 7.416 107.932 7.032C108.524 6.648 109.22 6.456 110.02 6.456C110.82 6.456 111.54 6.664 112.18 7.08C112.836 7.496 113.284 8.08 113.524 8.832C114.468 7.248 115.724 6.456 117.292 6.456C118.7 6.456 119.708 6.864 120.316 7.68C120.876 8.416 121.156 9.568 121.156 11.136V18.072L120.196 18L119.236 18.072V11.688C119.236 10.392 119.092 9.464 118.804 8.904C118.404 8.104 117.66 7.704 116.572 7.704C115.5 7.704 114.74 8.136 114.292 9C113.972 9.624 113.812 10.488 113.812 11.592V18.072L112.852 18L111.892 18.072V11.04C111.892 8.816 111.044 7.704 109.348 7.704C108.228 7.704 107.444 8.048 106.996 8.736C106.644 9.28 106.468 10.064 106.468 11.088V18.072L105.508 18L104.548 18.072ZM133.468 15.6L133.444 16.848C132.82 17.296 132.164 17.648 131.476 17.904C130.788 18.144 130.068 18.264 129.316 18.264C127.62 18.264 126.252 17.736 125.212 16.68C124.172 15.624 123.652 14.184 123.652 12.36C123.652 10.616 124.116 9.216 125.044 8.16C126.036 7.024 127.404 6.456 129.148 6.456C130.572 6.456 131.716 6.928 132.58 7.872C133.54 8.912 134.02 10.4 134.02 12.336L129.148 12.264H125.764C125.764 13.704 126.092 14.872 126.748 15.768C127.484 16.76 128.54 17.256 129.916 17.256C130.652 17.256 131.364 17.064 132.052 16.68C132.516 16.424 132.988 16.064 133.468 15.6ZM125.764 11.376H132.148C132.148 10.144 131.948 9.184 131.548 8.496C131.052 7.632 130.252 7.2 129.148 7.2C128.076 7.2 127.228 7.64 126.604 8.52C126.044 9.304 125.764 10.256 125.764 11.376Z" fill="white"/>
</svg>
