<svg id="svg" version="1.1" xmlns="http://www.w3.org/2000/svg" xmlns:xlink="http://www.w3.org/1999/xlink" width="400" height="400" viewBox="0, 0, 400,400"><g id="svgg"><path id="path0" d="M301.600 140.334 C 301.332 140.423,301.286 145.334,301.462 154.971 C 301.759 171.194,301.784 171.050,299.162 168.205 C 295.439 164.167,287.585 162.509,281.800 164.542 C 264.379 170.662,264.767 202.067,282.320 206.647 C 288.815 208.342,299.012 204.901,300.446 200.530 C 301.054 198.675,301.771 199.997,301.785 203.000 L 301.800 206.200 305.471 206.264 C 307.964 206.308,309.183 206.179,309.271 205.864 C 309.342 205.609,309.310 190.741,309.200 172.825 L 309.000 140.250 305.502 140.225 C 303.578 140.211,301.822 140.260,301.600 140.334 M63.600 146.673 C 63.600 147.044,63.947 148.349,64.371 149.573 C 64.795 150.798,66.251 155.310,67.605 159.600 C 68.960 163.890,70.397 168.390,70.799 169.600 C 71.804 172.627,73.735 178.793,74.806 182.400 C 75.297 184.050,76.021 186.390,76.415 187.600 C 76.810 188.810,77.707 191.690,78.409 194.000 C 79.110 196.310,80.040 199.370,80.475 200.800 C 80.910 202.230,81.501 204.030,81.788 204.800 L 82.311 206.200 85.653 206.200 L 88.996 206.200 96.798 182.709 C 103.340 163.012,105.600 157.003,105.600 159.309 C 105.600 159.369,106.328 161.484,107.219 164.009 C 110.418 173.082,115.972 189.973,118.856 199.400 C 119.327 200.940,120.009 203.100,120.371 204.200 L 121.031 206.200 124.405 206.200 L 127.779 206.200 137.530 177.200 C 142.893 161.250,147.373 147.705,147.486 147.100 L 147.691 146.000 144.538 146.000 L 141.385 146.000 140.447 149.500 C 139.636 152.525,138.139 157.985,136.800 162.800 C 132.943 176.668,126.727 195.686,126.226 195.150 C 125.936 194.838,116.018 165.383,113.650 157.800 C 112.963 155.600,111.830 152.045,111.133 149.900 L 109.864 146.000 106.781 146.000 C 103.251 146.000,103.424 145.791,101.650 152.200 C 101.406 153.080,100.845 155.015,100.403 156.500 C 99.962 157.985,99.266 160.325,98.857 161.700 C 96.825 168.539,96.119 170.773,93.770 177.800 C 87.810 195.622,87.402 196.677,86.972 195.357 C 86.836 194.941,86.574 194.150,86.388 193.600 C 86.203 193.050,85.481 190.710,84.784 188.400 C 82.472 180.741,81.941 179.009,81.595 178.000 C 81.212 176.886,79.018 169.484,78.333 167.000 C 77.834 165.191,77.231 163.079,76.791 161.600 C 76.627 161.050,76.296 159.880,76.055 159.000 C 75.152 155.705,73.915 151.313,73.153 148.700 L 72.366 146.000 67.983 146.000 C 64.141 146.000,63.600 146.083,63.600 146.673 M166.200 163.859 C 163.434 164.163,159.484 165.597,157.200 167.127 L 155.000 168.600 154.881 171.100 C 154.730 174.263,155.221 174.341,157.972 171.589 C 160.820 168.742,162.983 167.864,167.200 167.844 C 173.431 167.815,176.032 170.525,176.143 177.163 L 176.200 180.600 174.755 181.306 C 173.961 181.695,170.181 182.657,166.355 183.443 C 154.029 185.978,150.838 188.825,151.280 196.890 C 151.850 207.277,165.216 211.067,174.304 203.419 C 175.743 202.209,176.800 202.098,176.800 203.159 C 176.800 204.638,179.406 206.400,181.594 206.400 C 187.436 206.400,191.428 203.552,186.797 202.689 C 185.676 202.481,184.653 201.969,184.079 201.331 L 183.158 200.306 183.247 187.253 C 183.346 172.800,183.156 171.316,180.790 168.049 C 178.413 164.768,172.745 163.141,166.200 163.859 M202.687 164.037 C 196.732 165.439,193.386 169.758,193.434 175.981 C 193.484 182.598,196.245 185.898,203.293 187.765 C 211.312 189.888,213.976 192.168,213.466 196.472 C 212.450 205.049,202.424 205.724,195.639 197.671 L 194.856 196.742 194.283 197.671 C 193.967 198.182,193.395 199.762,193.011 201.183 L 192.312 203.765 193.351 204.594 C 193.923 205.050,195.248 205.658,196.295 205.947 C 197.343 206.235,198.722 206.635,199.360 206.835 C 211.289 210.587,223.848 198.382,218.536 188.200 C 216.926 185.113,214.323 183.652,206.000 181.164 C 201.060 179.687,199.000 177.529,199.001 173.831 C 199.003 166.371,207.028 164.614,213.848 170.580 C 215.968 172.434,216.800 172.440,216.800 170.600 C 216.800 170.138,216.961 169.589,217.158 169.380 C 217.355 169.171,217.640 168.412,217.791 167.693 C 218.376 164.916,208.799 162.597,202.687 164.037 M240.400 163.885 C 227.271 166.189,220.396 182.774,226.925 196.391 C 231.988 206.948,246.391 210.407,258.000 203.853 C 260.496 202.444,260.800 202.022,260.800 199.962 C 260.800 197.431,260.404 197.296,258.119 199.049 C 246.590 207.894,232.800 201.651,232.800 187.585 L 232.800 185.210 247.700 185.105 L 262.600 185.000 262.722 182.618 C 263.391 169.606,253.776 161.536,240.400 163.885 M333.800 163.847 C 326.942 164.537,322.000 167.693,322.000 171.381 C 322.000 174.240,322.693 174.307,325.191 171.688 C 330.945 165.655,340.861 166.496,342.966 173.195 C 345.213 180.348,344.454 181.277,334.800 183.186 C 321.563 185.803,318.596 188.232,318.660 196.400 C 318.743 206.868,330.607 210.922,340.835 203.976 C 343.623 202.083,343.766 202.068,344.404 203.610 C 345.127 205.354,346.797 206.400,348.862 206.401 C 354.715 206.405,358.638 203.562,354.000 202.678 C 350.459 202.004,350.600 202.648,350.600 187.088 C 350.600 171.594,350.469 170.754,347.520 167.404 C 345.060 164.610,339.791 163.244,333.800 163.847 M247.896 167.406 C 252.003 168.626,255.447 174.365,255.124 179.451 L 255.000 181.400 243.900 181.506 L 232.800 181.613 232.800 180.626 C 232.800 171.902,240.457 165.197,247.896 167.406 M294.295 168.543 C 301.533 172.300,304.016 186.253,299.257 196.427 C 295.344 204.793,284.044 205.627,279.599 197.878 C 274.336 188.702,276.868 172.749,284.197 168.906 C 287.012 167.431,291.819 167.258,294.295 168.543 M176.197 191.208 C 176.194 198.324,176.057 198.710,172.782 200.811 C 166.235 205.013,159.999 202.999,159.003 196.362 C 158.142 190.615,161.384 187.851,171.600 185.624 C 176.601 184.534,176.200 184.047,176.197 191.208 M343.504 191.005 C 343.626 198.028,343.425 198.586,339.950 200.867 C 334.002 204.771,327.644 202.994,326.418 197.085 C 325.263 191.521,328.022 188.334,335.600 186.480 C 344.375 184.334,343.378 183.763,343.504 191.005 M157.679 219.450 C 153.375 221.634,155.049 228.000,159.927 228.000 C 165.733 228.000,166.334 219.837,160.590 219.009 C 159.509 218.853,158.577 218.995,157.679 219.450 M102.882 222.697 L 103.000 225.400 104.400 225.300 C 105.170 225.246,109.282 225.089,113.538 224.952 L 121.276 224.704 121.152 252.452 L 121.029 280.200 125.114 280.314 C 128.223 280.401,129.207 280.305,129.230 279.914 C 129.246 279.631,129.233 267.767,129.202 253.549 C 129.171 239.331,129.272 227.025,129.426 226.202 L 129.707 224.706 137.153 224.955 C 141.249 225.091,145.230 225.247,146.000 225.302 L 147.400 225.400 147.400 222.800 L 147.400 220.200 125.082 220.097 L 102.763 219.993 102.882 222.697 M194.400 238.124 C 191.478 238.970,189.819 239.926,187.275 242.228 C 184.307 244.913,184.401 244.924,184.394 241.900 C 184.386 238.631,184.330 238.582,180.655 238.596 L 177.511 238.608 177.455 259.504 L 177.400 280.400 181.085 280.400 L 184.769 280.400 184.710 267.300 C 184.620 247.357,186.400 243.200,195.032 243.200 C 202.758 243.200,204.533 247.904,203.659 266.064 C 203.402 271.419,203.193 276.835,203.196 278.100 L 203.200 280.400 206.800 280.400 C 209.387 280.400,210.414 280.259,210.450 279.900 C 210.478 279.625,210.461 275.260,210.412 270.200 C 210.209 248.946,212.405 243.096,220.600 243.060 C 223.882 243.045,226.180 244.024,227.727 246.096 C 229.733 248.782,229.806 249.495,229.714 265.515 L 229.629 280.430 233.257 280.315 L 236.886 280.200 236.912 264.000 C 236.937 248.192,236.916 247.745,236.052 245.530 C 232.279 235.871,218.050 234.963,211.400 243.958 C 209.940 245.933,209.854 245.944,209.050 244.249 C 206.709 239.315,199.991 236.506,194.400 238.124 M261.283 238.210 C 241.252 242.560,240.682 274.406,260.527 280.442 C 268.864 282.977,281.533 279.401,282.132 274.344 C 282.467 271.517,282.007 271.189,280.052 272.862 C 269.220 282.134,255.684 276.647,254.244 262.400 C 253.900 258.995,252.849 259.223,269.421 259.105 L 284.200 259.000 284.336 257.000 C 285.231 243.828,274.751 235.286,261.283 238.210 M156.380 238.793 C 156.369 238.907,156.343 248.270,156.322 259.600 L 156.285 280.200 159.876 280.314 L 163.467 280.428 163.434 259.531 L 163.400 238.633 159.900 238.609 C 157.975 238.596,156.391 238.678,156.380 238.793 M269.164 241.426 C 273.408 242.687,276.263 247.077,276.490 252.689 L 276.600 255.400 265.500 255.506 L 254.400 255.613 254.405 254.506 C 254.441 245.975,261.981 239.293,269.164 241.426 " stroke="none" fill="#f8f5f5" fill-rule="evenodd"></path><path id="path1" d="M176.200 22.700 C 163.786 35.185,151.823 47.200,149.616 49.400 C 144.338 54.661,54.350 144.653,49.304 149.717 C 47.157 151.872,35.185 163.789,22.700 176.201 C 2.578 196.204,0.000 198.906,0.000 199.989 C 0.000 201.070,2.153 203.342,18.680 219.706 C 28.954 229.878,47.809 248.712,60.580 261.560 C 89.888 291.045,108.955 310.112,138.440 339.420 C 151.288 352.191,170.122 371.046,180.294 381.320 C 196.543 397.732,198.935 400.000,199.994 400.000 C 201.054 400.000,204.132 397.057,225.759 375.360 C 239.267 361.808,250.500 350.540,250.720 350.320 C 251.243 349.797,349.659 251.381,350.260 250.780 C 350.513 250.527,361.808 239.267,375.360 225.759 C 397.027 204.162,400.000 201.053,400.000 199.997 C 400.000 198.940,397.113 195.920,376.100 174.994 C 362.955 161.903,351.660 150.650,351.000 149.988 C 350.340 149.325,327.750 126.733,300.800 99.782 C 273.850 72.832,251.465 50.446,251.055 50.035 C 250.646 49.625,239.260 38.199,225.755 24.645 C 204.055 2.867,201.057 0.000,199.985 0.000 C 198.914 0.000,196.136 2.651,176.200 22.700 M309.200 172.825 C 309.310 190.741,309.342 205.609,309.271 205.864 C 309.183 206.179,307.964 206.308,305.471 206.264 L 301.800 206.200 301.785 203.000 C 301.771 199.997,301.054 198.675,300.446 200.530 C 299.012 204.901,288.815 208.342,282.320 206.647 C 264.767 202.067,264.379 170.662,281.800 164.542 C 287.585 162.509,295.439 164.167,299.162 168.205 C 301.784 171.050,301.759 171.194,301.462 154.971 C 301.286 145.334,301.332 140.423,301.600 140.334 C 301.822 140.260,303.578 140.211,305.502 140.225 L 309.000 140.250 309.200 172.825 M73.153 148.700 C 73.915 151.313,75.152 155.705,76.055 159.000 C 76.296 159.880,76.627 161.050,76.791 161.600 C 77.231 163.079,77.834 165.191,78.333 167.000 C 79.018 169.484,81.212 176.886,81.595 178.000 C 81.941 179.009,82.472 180.741,84.784 188.400 C 85.481 190.710,86.203 193.050,86.388 193.600 C 86.574 194.150,86.836 194.941,86.972 195.357 C 87.402 196.677,87.810 195.622,93.770 177.800 C 96.119 170.773,96.825 168.539,98.857 161.700 C 99.266 160.325,99.962 157.985,100.403 156.500 C 100.845 155.015,101.406 153.080,101.650 152.200 C 103.424 145.791,103.251 146.000,106.781 146.000 L 109.864 146.000 111.133 149.900 C 111.830 152.045,112.963 155.600,113.650 157.800 C 116.018 165.383,125.936 194.838,126.226 195.150 C 126.506 195.449,127.619 192.400,130.737 182.800 C 133.470 174.385,134.776 170.076,136.800 162.800 C 138.139 157.985,139.636 152.525,140.447 149.500 L 141.385 146.000 144.538 146.000 L 147.691 146.000 147.486 147.100 C 147.373 147.705,142.893 161.250,137.530 177.200 L 127.779 206.200 124.405 206.200 L 121.031 206.200 120.371 204.200 C 120.009 203.100,119.327 200.940,118.856 199.400 C 115.972 189.973,110.418 173.082,107.219 164.009 C 106.328 161.484,105.600 159.369,105.600 159.309 C 105.600 157.003,103.340 163.012,96.798 182.709 L 88.996 206.200 85.653 206.200 L 82.311 206.200 81.788 204.800 C 81.501 204.030,80.910 202.230,80.475 200.800 C 80.040 199.370,79.110 196.310,78.409 194.000 C 77.707 191.690,76.810 188.810,76.415 187.600 C 76.021 186.390,75.297 184.050,74.806 182.400 C 73.735 178.793,71.804 172.627,70.799 169.600 C 70.397 168.390,68.960 163.890,67.605 159.600 C 66.251 155.310,64.795 150.798,64.371 149.573 C 63.091 145.876,62.966 146.000,67.983 146.000 L 72.366 146.000 73.153 148.700 M175.600 164.518 C 182.590 167.072,183.369 169.388,183.247 187.253 L 183.158 200.306 184.079 201.331 C 184.653 201.969,185.676 202.481,186.797 202.689 C 191.428 203.552,187.436 206.400,181.594 206.400 C 179.406 206.400,176.800 204.638,176.800 203.159 C 176.800 202.098,175.743 202.209,174.304 203.419 C 165.216 211.067,151.850 207.277,151.280 196.890 C 150.838 188.825,154.029 185.978,166.355 183.443 C 170.181 182.657,173.961 181.695,174.755 181.306 L 176.200 180.600 176.143 177.163 C 176.032 170.525,173.431 167.815,167.200 167.844 C 162.983 167.864,160.820 168.742,157.972 171.589 C 155.221 174.341,154.730 174.263,154.881 171.100 L 155.000 168.600 157.200 167.127 C 161.907 163.974,170.699 162.728,175.600 164.518 M211.328 163.986 C 216.800 164.882,219.255 167.154,217.158 169.380 C 216.961 169.589,216.800 170.138,216.800 170.600 C 216.800 172.440,215.968 172.434,213.848 170.580 C 207.028 164.614,199.003 166.371,199.001 173.831 C 199.000 177.529,201.060 179.687,206.000 181.164 C 214.323 183.652,216.926 185.113,218.536 188.200 C 223.848 198.382,211.289 210.587,199.360 206.835 C 198.722 206.635,197.343 206.235,196.295 205.947 C 195.248 205.658,193.923 205.050,193.351 204.594 L 192.312 203.765 193.011 201.183 C 193.395 199.762,193.967 198.182,194.283 197.671 L 194.856 196.742 195.639 197.671 C 202.424 205.724,212.450 205.049,213.466 196.472 C 213.976 192.168,211.312 189.888,203.293 187.765 C 196.245 185.898,193.484 182.598,193.434 175.981 C 193.365 166.940,200.433 162.202,211.328 163.986 M250.528 164.198 C 258.533 166.283,263.200 173.332,262.722 182.618 L 262.600 185.000 247.700 185.105 L 232.800 185.210 232.800 187.585 C 232.800 201.651,246.590 207.894,258.119 199.049 C 260.404 197.296,260.800 197.431,260.800 199.962 C 260.800 202.363,259.626 203.421,254.800 205.370 C 236.670 212.692,220.187 197.612,225.322 178.400 C 228.283 167.319,239.104 161.222,250.528 164.198 M343.800 164.834 C 349.800 167.079,350.600 169.698,350.600 187.088 C 350.600 202.648,350.459 202.004,354.000 202.678 C 358.638 203.562,354.715 206.405,348.862 206.401 C 346.797 206.400,345.127 205.354,344.404 203.610 C 343.766 202.068,343.623 202.083,340.835 203.976 C 330.607 210.922,318.743 206.868,318.660 196.400 C 318.596 188.232,321.563 185.803,334.800 183.186 C 344.454 181.277,345.213 180.348,342.966 173.195 C 340.861 166.496,330.945 165.655,325.191 171.688 C 322.693 174.307,322.000 174.240,322.000 171.381 C 322.000 165.526,335.120 161.587,343.800 164.834 M241.997 167.174 C 237.157 168.646,232.800 175.018,232.800 180.626 L 232.800 181.613 243.900 181.506 L 255.000 181.400 255.124 179.451 C 255.621 171.634,248.679 165.141,241.997 167.174 M286.397 167.950 C 274.025 172.007,273.234 197.504,285.319 202.717 C 288.814 204.225,294.347 202.709,297.314 199.431 C 303.110 193.026,302.933 175.663,297.018 170.470 C 294.252 168.041,289.534 166.921,286.397 167.950 M171.600 185.624 C 161.384 187.851,158.142 190.615,159.003 196.362 C 159.999 202.999,166.235 205.013,172.782 200.811 C 176.057 198.710,176.194 198.324,176.197 191.208 C 176.200 184.047,176.601 184.534,171.600 185.624 M340.600 185.261 C 333.602 186.955,332.021 187.402,330.724 188.052 C 322.151 192.349,326.634 205.020,335.921 202.739 C 342.016 201.243,343.639 198.732,343.504 191.005 C 343.389 184.349,343.495 184.561,340.600 185.261 M162.945 219.919 C 166.258 222.866,164.341 228.000,159.927 228.000 C 155.049 228.000,153.375 221.634,157.679 219.450 C 159.243 218.657,161.779 218.883,162.945 219.919 M147.400 222.800 L 147.400 225.400 146.000 225.302 C 145.230 225.247,141.249 225.091,137.153 224.955 L 129.707 224.706 129.426 226.202 C 129.272 227.025,129.171 239.331,129.202 253.549 C 129.233 267.767,129.246 279.631,129.230 279.914 C 129.207 280.305,128.223 280.401,125.114 280.314 L 121.029 280.200 121.152 252.452 L 121.276 224.704 113.538 224.952 C 109.282 225.089,105.170 225.246,104.400 225.300 L 103.000 225.400 102.882 222.697 L 102.763 219.993 125.082 220.097 L 147.400 220.200 147.400 222.800 M203.742 239.010 C 206.028 240.176,208.077 242.199,209.050 244.249 C 209.854 245.944,209.940 245.933,211.400 243.958 C 218.050 234.963,232.279 235.871,236.052 245.530 C 236.916 247.745,236.937 248.192,236.912 264.000 L 236.886 280.200 233.257 280.315 L 229.629 280.430 229.714 265.515 C 229.806 249.495,229.733 248.782,227.727 246.096 C 226.180 244.024,223.882 243.045,220.600 243.060 C 212.405 243.096,210.209 248.946,210.412 270.200 C 210.461 275.260,210.478 279.625,210.450 279.900 C 210.414 280.259,209.387 280.400,206.800 280.400 L 203.200 280.400 203.196 278.100 C 203.193 276.835,203.402 271.419,203.659 266.064 C 204.533 247.904,202.758 243.200,195.032 243.200 C 186.400 243.200,184.620 247.357,184.710 267.300 L 184.769 280.400 181.085 280.400 L 177.400 280.400 177.455 259.504 L 177.511 238.608 180.655 238.596 C 184.330 238.582,184.386 238.631,184.394 241.900 C 184.401 244.924,184.307 244.913,187.275 242.228 C 192.378 237.609,198.610 236.392,203.742 239.010 M271.565 238.217 C 279.709 240.136,284.958 247.855,284.336 257.000 L 284.200 259.000 269.421 259.105 C 252.849 259.223,253.900 258.995,254.244 262.400 C 255.684 276.647,269.220 282.134,280.052 272.862 C 282.007 271.189,282.467 271.517,282.132 274.344 C 281.533 279.401,268.864 282.977,260.527 280.442 C 251.269 277.626,246.219 270.276,246.208 259.600 C 246.193 244.214,257.295 234.853,271.565 238.217 M163.434 259.531 L 163.467 280.428 159.876 280.314 L 156.285 280.200 156.322 259.600 C 156.343 248.270,156.369 238.907,156.380 238.793 C 156.391 238.678,157.975 238.596,159.900 238.609 L 163.400 238.633 163.434 259.531 M262.866 241.563 C 258.391 243.109,254.428 249.171,254.405 254.506 L 254.400 255.613 265.500 255.506 L 276.600 255.400 276.490 252.689 C 276.146 244.176,269.950 239.117,262.866 241.563 " stroke="none" fill="#8c1424" fill-rule="evenodd"></path></g></svg>